<?xml version="1.0" encoding="UTF-8"?>
<svg width="45px" height="45px" viewBox="0 0 45 45" version="1.1" xmlns="http://www.w3.org/2000/svg" xmlns:xlink="http://www.w3.org/1999/xlink">
    <!-- Generator: Sketch 49 (51002) - http://www.bohemiancoding.com/sketch -->
    <title>add-foods</title>
    <desc>Created with Sketch.</desc>
    <defs>
        <path d="M23.5188,0.996740189 C35.934837,0.996740189 45.999981,11.0322875 45.999981,23.412276 C45.999981,35.7925514 35.934837,45.8291029 23.5188,45.8291029 C11.102857,45.8291029 1.037666,35.7925514 1.037666,23.412276 C1.037666,11.0322875 11.102857,0.996740189 23.5188,0.996740189 Z" id="path-1"></path>
    </defs>
    <g id="点餐" stroke="none" stroke-width="1" fill="none" fill-rule="evenodd">
        <g id="Order" transform="translate(-245.000000, -1264.000000)">
            <g id="add-foods" transform="translate(244.000000, 1263.000000)">
                <g id="椭圆-1071">
                    <use fill-opacity="0" fill="#000000" fill-rule="evenodd" xlink:href="#path-1"></use>
                    <path stroke="#FD593E" stroke-width="2" d="M23.5188,1.99674019 C11.6543918,1.99674019 2.037666,11.5853241 2.037666,23.412276 C2.037666,35.2396779 11.6545552,44.8291029 23.5188,44.8291029 C35.3831153,44.8291029 44.999981,35.2397013 44.999981,23.412276 C44.999981,11.5853006 35.3832787,1.99674019 23.5188,1.99674019 Z"></path>
                </g>
                <path d="M22.063868,21.918411 L22.063868,13.9477573 L25.067594,13.9477573 L25.067594,21.918411 L33.07764,21.918411 L33.07764,24.9067486 L25.067594,24.9067486 L25.067594,32.8770955 L22.063868,32.8770955 L22.063868,24.9067486 L14.05391,24.9067486 L14.05391,21.918411 L22.063868,21.918411 Z" id="Combined-shape-184" fill="#FD593E" fill-rule="evenodd"></path>
            </g>
        </g>
    </g>
</svg>