
<svg width="23px" height="24px" viewBox="0 0 23 24" version="1.1" xmlns="http://www.w3.org/2000/svg" xmlns:xlink="http://www.w3.org/1999/xlink">
    <!-- Generator: Sketch 49.3 (51167) - http://www.bohemiancoding.com/sketch -->
    <desc>Created with Sketch.</desc>
    <defs></defs>
    <g id="点餐" stroke="none" stroke-width="1" fill="none" fill-rule="evenodd">
        <g id="购物车" transform="translate(-707.000000, -224.000000)" fill="#000000">
            <path d="M716.888889,234 L716.888889,222.666667 C716.888889,221.746192 717.610208,221 718.5,221 C719.389792,221 720.111111,221.746192 720.111111,222.666667 L720.111111,234 L732,234 C732.552285,234 733,234.447715 733,235 L733,236 C733,236.552285 732.552285,237 732,237 L720.111111,237 L720.111111,249.333333 C720.111111,250.253808 719.389792,251 718.5,251 C717.610208,251 716.888889,250.253808 716.888889,249.333333 L716.888889,237 L705,237 C704.447715,237 704,236.552285 704,236 L704,235 C704,234.447715 704.447715,234 705,234 L716.888889,234 Z" id="Combined-Shape" transform="translate(718.500000, 236.000000) rotate(45.000000) translate(-718.500000, -236.000000) "></path>
        </g>
    </g>
</svg>