
<svg width="27px" height="32px" viewBox="0 0 27 32" version="1.1" xmlns="http://www.w3.org/2000/svg" xmlns:xlink="http://www.w3.org/1999/xlink">
    <!-- Generator: Sketch 49.3 (51167) - http://www.bohemiancoding.com/sketch -->
    <desc>Created with Sketch.</desc>
    <defs></defs>
    <g id="点餐" stroke="none" stroke-width="1" fill="none" fill-rule="evenodd">
        <g id="购物车" transform="translate(-30.000000, -225.000000)" fill="#FD593E" fill-rule="nonzero">
            <g id="Delete" transform="translate(30.000000, 225.000000)">
                <path d="M19.3153278,32 L7.91641174,32 C6.39604408,32 4.84871423,31.4454592 3.76041807,30.4015876 C2.67415126,29.3595699 2,27.9675403 2,26.5053878 L2,10.8345689 C2,10.3736025 2.54761423,10 3.02819824,10 C3.50878226,10 4.03179932,10.5646073 4.03179932,11.0255737 C4.03179932,11.3328847 4.00856527,16.4928381 3.96209717,26.5054342 C3.96209717,27.5282179 4.22824577,28.4903799 4.99067646,29.2215951 C5.75503991,29.9548033 6.97449106,30.0193481 8.03674316,30.0193481 L19.3153278,30.0193481 C20.3749706,30.0193481 21.3497164,29.9656485 22.1252899,29.2215951 C22.8806176,28.4972392 22.9954834,27.5607534 22.9954834,26.5053878 L23.0687866,10.8345689 C23.0687866,10.3736025 23.5617744,10 24.0423584,10 C24.5229424,10 25,10.3736025 25,10.8345689 L25,26.5054342 C25,28.0066571 24.4393991,29.3618872 23.3555,30.4016339 C22.2511134,31.4608 20.8398025,32 19.3153278,32 Z" id="Shape"></path>
                <path d="M11,29 C10.4474444,29 9.99999995,28.6180145 10,28.1467047 L10,10.8532953 C10,10.3819855 10.4474444,10 11,10 C11.5525555,10 12,10.3819855 12,10.8532953 L12,28.1467047 C12,28.6180145 11.5525556,29 11,29 Z M18,29 C17.4623784,29 16.9999999,28.6180145 17,28.1467047 L17,10.8532953 C17,10.3819855 17.4623784,10 18,10 C18.5376216,10 19,10.3819855 19,10.8532953 L19,28.1467047 C19,28.6180145 18.5376216,29 18,29 Z" id="Shape"></path>
                <path d="M0.866464105,7 C0.454122737,7 0.0885978164,6.73499639 0.0136047373,6.35775439 C-0.070443359,5.93427626 0.243641217,5.52982889 0.715225702,5.45426807 L25.9803227,1.40914574 C26.4519072,1.33380115 26.902299,1.6157162 26.9863953,2.03919433 C27.0704434,2.46267246 26.7563588,2.86711983 26.2847743,2.94268069 L1.01967726,6.98784628 C0.968188795,6.99606411 0.916941133,7.00000004 0.866464105,7 Z M8.89866803,2.85483634 C8.48632666,2.85483634 8.12080174,2.58983273 8.04580871,2.21259069 C7.96176061,1.78911256 8.27584519,1.38466519 8.74742963,1.30910437 L16.847739,0.0121566328 C17.3193234,-0.0631014375 17.7697153,0.218856871 17.8538597,0.642205229 C17.9379078,1.06568336 17.6238232,1.47013073 17.1522387,1.54569159 L9.05192936,2.84263933 C9.00039272,2.85090041 8.94914506,2.85483634 8.89866803,2.85483634 Z" id="Shape"></path>
            </g>
        </g>
    </g>
</svg>