<?xml version="1.0" encoding="UTF-8"?>
<svg width="145px" height="110px" viewBox="0 0 145 110" version="1.1" xmlns="http://www.w3.org/2000/svg" xmlns:xlink="http://www.w3.org/1999/xlink">
    <!-- Generator: Sketch 49 (51002) - http://www.bohemiancoding.com/sketch -->
    <title>ICON</title>
    <desc>Created with Sketch.</desc>
    <defs></defs>
    <g id="Symbols" stroke="none" stroke-width="1" fill="none" fill-rule="evenodd">
        <g id="Def" transform="translate(-39.000000, -76.000000)">
            <g id="ICON" transform="translate(-1.000000, 0.000000)">
                <g id="dish" transform="translate(54.000000, 108.000000)" fill="#FFFFFF" fill-rule="nonzero">
                    <g id="Group">
                        <path d="M114.56,62.1 C113.9,60.8 112.6,60 111.14,60 L108.94,60 C108.02,35.62 90.22,15.48 66.92,10.96 C66.94,10.64 67,10.32 67,10 C67,4.48 62.52,0 57,0 C51.48,0 47,4.48 47,10 C47,10.32 47.06,10.64 47.08,10.96 C23.78,15.48 5.98,35.62 5.04,60 L4.84,60 C3.38,60 2.08,60.8 1.42,62.1 C0.76,63.4 0.86,64.92 1.72,66.1 L6.24,72.42 C8.74,75.92 12.78,78 17.06,78 L98.92,78 C103.2,78 107.26,75.92 109.74,72.42 L114.26,66.1 C115.12,64.92 115.24,63.38 114.56,62.1 Z M51.02,10.34 C51,10.22 51,10.12 51,10 C51,6.7 53.7,4 57,4 C60.3,4 63,6.7 63,10 C63,10.12 63,10.22 62.98,10.34 C62.88,10.32 62.8,10.32 62.7,10.32 C62.02,10.24 61.32,10.2 60.62,10.14 C60.36,10.12 60.1,10.1 59.86,10.08 C58.92,10.04 57.96,10 57,10 C56.04,10 55.08,10.04 54.14,10.08 C53.88,10.1 53.62,10.12 53.38,10.14 C52.68,10.18 52,10.24 51.3,10.32 C51.2,10.34 51.1,10.34 51.02,10.34 Z M49.82,14.54 C50.9,14.38 51.96,14.26 53.04,14.18 C53.26,14.16 53.48,14.14 53.7,14.14 C55.9,14 58.1,14 60.3,14.14 C60.52,14.16 60.74,14.18 60.96,14.18 C62.04,14.26 63.12,14.38 64.18,14.54 C86.62,17.92 104,36.88 104.96,60 L9.04,60 C10,36.88 27.38,17.92 49.82,14.54 Z M106.5,70.1 C104.76,72.54 101.92,74 98.94,74 L17.06,74 C14.06,74 11.24,72.54 9.48,70.1 L5.14,64 L109,64 L110.86,64 L106.5,70.1 Z" id="Shape"></path>
                        <path d="M56.98,18 C53.7,18 50.42,18.36 47.26,19.08 C46.18,19.32 45.5,20.4 45.74,21.48 C45.94,22.4 46.78,23.04 47.68,23.04 C47.82,23.04 47.98,23.02 48.12,23 C51,22.32 53.98,22 56.98,22 C56.98,22 57,22 57,22 C58.1,22 59,21.1 59,20 C59,18.88 58.12,17.96 56.98,18 Z" id="Shape"></path>
                        <path d="M35.3,23.8 C24.9,29.96 17.32,41.12 15.04,53.64 C14.84,54.72 15.56,55.76 16.64,55.96 C16.76,56 16.88,56 17,56 C17.94,56 18.78,55.32 18.96,54.36 C21.04,42.96 27.9,32.82 37.34,27.24 C38.3,26.68 38.6,25.46 38.04,24.5 C37.48,23.56 36.26,23.24 35.3,23.8 Z" id="Shape"></path>
                    </g>
                </g>
                <g id="vegetable" transform="translate(20.000000, 42.000000)">
                    <g id="Group-3" transform="translate(136.219455, 70.414800) rotate(20.000000) translate(-136.219455, -70.414800) translate(127.219455, 59.414800)" stroke="#FFFFFF" stroke-width="2">
                        <path d="M17,0.0649529897 C11.2694658,-0.293415448 6.60817082,0.831149439 3.01611505,3.43864765 C-2.3719686,7.34989497 0.883262833,13.5004196 1.97100673,14.5357208 C2.69616933,15.2259215 3.34123168,15.7140146 3.90619377,16" id="Path-5"></path>
                        <path d="M16.4757196,0 C17.868152,5.54152768 18.3065926,9.47745864 17.7910414,11.8077929 C17.0177147,15.3032943 16.018986,16.5643646 14.5464738,17.5511378 C13.0739616,18.5379111 8.52033584,17.6839645 8,17.0288892" id="Path-6"></path>
                        <path d="M9,10 L5.34236821,14.2113358 C4.44745607,15.202866 4,16.1356139 4,17.0095797 C4,17.8835454 4.02009412,18.8826983 4.06028236,20.0070381 L4.06028236,22" id="Path-7"></path>
                    </g>
                    <path d="M157.061,34 C153.167,34 150,37.167 150,41.061 C150,44.955 153.167,48.122 157.061,48.122 C160.955,48.122 164.122,44.955 164.122,41.061 C164.122,37.167 160.954,34 157.061,34 Z M157.061,46.121 C154.271,46.121 152,43.85 152,41.06 C152,38.27 154.271,35.999 157.061,35.999 C159.851,35.999 162.122,38.27 162.122,41.06 C162.122,43.85 159.851,46.121 157.061,46.121 Z" id="Shape" fill="#FFFFFF" fill-rule="nonzero"></path>
                    <path d="M158.89525,39.29325 C158.50425,38.90225 157.87225,38.90225 157.48125,39.29325 L157.09425,39.68025 L156.70725,39.29325 C156.31625,38.90225 155.68425,38.90225 155.29325,39.29325 C154.90225,39.68425 154.90225,40.31625 155.29325,40.70725 L155.68025,41.09425 L155.29325,41.48125 C154.90225,41.87225 154.90225,42.50425 155.29325,42.89525 C155.48825,43.09025 155.74425,43.18825 156.00025,43.18825 C156.25625,43.18825 156.51225,43.09025 156.70725,42.89525 L157.09425,42.50825 L157.48125,42.89525 C157.67625,43.09025 157.93225,43.18825 158.18825,43.18825 C158.44425,43.18825 158.70025,43.09025 158.89525,42.89525 C159.28625,42.50425 159.28625,41.87225 158.89525,41.48125 L158.50825,41.09425 L158.89525,40.70725 C159.28525,40.31625 159.28525,39.68425 158.89525,39.29325 Z" id="Path" fill="#FFFFFF"></path>
                    <path d="M53.061,67 C49.167,67 46,70.167 46,74.061 C46,77.955 49.167,81.122 53.061,81.122 C56.955,81.122 60.122,77.955 60.122,74.061 C60.122,70.167 56.955,67 53.061,67 Z M53.061,79.121 C50.271,79.121 48,76.85 48,74.06 C48,71.27 50.271,68.999 53.061,68.999 C55.851,68.999 58.122,71.27 58.122,74.06 C58.122,76.85 55.851,79.121 53.061,79.121 Z" id="Shape" fill="#FFFFFF" fill-rule="nonzero"></path>
                    <path d="M54.89525,72.29325 C54.50425,71.90225 53.87225,71.90225 53.48125,72.29325 L53.09425,72.68025 L52.70725,72.29325 C52.31625,71.90225 51.68425,71.90225 51.29325,72.29325 C50.90225,72.68425 50.90225,73.31625 51.29325,73.70725 L51.68025,74.09425 L51.29325,74.48125 C50.90225,74.87225 50.90225,75.50425 51.29325,75.89525 C51.48825,76.09025 51.74425,76.18825 52.00025,76.18825 C52.25625,76.18825 52.51225,76.09025 52.70725,75.89525 L53.09425,75.50825 L53.48125,75.89525 C53.67625,76.09025 53.93225,76.18825 54.18825,76.18825 C54.44425,76.18825 54.70025,76.09025 54.89525,75.89525 C55.28625,75.50425 55.28625,74.87225 54.89525,74.48125 L54.50825,74.09425 L54.89525,73.70725 C55.28525,73.31725 55.28525,72.68425 54.89525,72.29325 Z" id="Shape" fill="#FFFFFF" fill-rule="nonzero"></path>
                    <path d="M125.084563,48.4668717 C125.511875,48.4668717 125.947145,48.401644 126.375681,48.263113 C128.621211,47.539397 129.867639,45.0961565 129.154432,42.8175381 C128.440613,40.5389197 126.034077,39.2735037 123.787323,39.997841 C121.541794,40.721557 120.295978,43.1647975 121.009184,45.4440371 C121.587096,47.2871835 123.272467,48.4668717 125.084563,48.4668717 Z M124.158313,41.1818777 C124.462573,41.0837256 124.774793,41.0352708 125.085175,41.0352708 C125.56636,41.0352708 126.043872,41.1520593 126.483427,41.3837727 C127.207041,41.7633354 127.741487,42.4062934 127.987589,43.1939946 C128.233692,43.9816959 128.163901,44.8190943 127.789238,45.553371 C127.415188,46.2870265 126.781566,46.8293477 126.005304,47.0790763 C125.228429,47.3294261 124.402578,47.2573651 123.680189,46.8784237 C122.957187,46.498861 122.422741,45.855903 122.176639,45.0682018 C121.667906,43.4418596 122.556812,41.6981077 124.158313,41.1818777 Z" id="Shape" fill="#FFFFFF" fill-rule="nonzero" transform="translate(125.081779, 44.130314) rotate(10.000000) translate(-125.081779, -44.130314) "></path>
                </g>
                <g id="Fish" transform="translate(38.000000, 70.000000)" fill="#FFFFFF" fill-rule="nonzero">
                    <path d="M34.0147924,7.38758853 C33.9380547,7.12385233 33.7323553,6.91724118 33.4691026,6.8408965 C31.7755458,6.35079563 30.0537453,6.10200805 28.3511292,6.10200805 C26.2792133,6.10200805 24.2920285,6.47625718 22.4700428,7.18524841 L18.870835,5.41490586 C18.6075823,5.28570715 18.2931712,5.31133334 18.053899,5.4821746 C10.772351,10.6949685 10.5330788,17.2397904 10.4307619,20.0346467 C10.4147749,20.4766984 10.7590284,20.8477443 11.2002698,20.8642945 C11.2103949,20.8648284 11.2199871,20.8648284 11.2301122,20.8648284 C11.6580311,20.8648284 12.0129426,20.5252814 12.0283967,20.0933733 C12.128049,17.3716585 12.3321498,11.7653958 18.5995888,7.06619341 L20.6160831,8.05814047 C19.431446,8.71694708 18.3400664,9.53164634 17.3755171,10.4979672 C14.028904,13.8496592 12.5261254,18.5728861 13.1075195,23.5459684 C10.430229,23.1460931 8.05615873,23.7851462 6.47451099,25.3643601 C6.30131843,25.536803 6.2165873,25.7797179 6.24429811,26.0226328 C6.27254182,26.2660816 6.41003007,26.4828364 6.61732824,26.6120352 C7.60106197,27.2238604 10.3284451,28.9835254 11.1198019,29.7768695 C11.9122244,30.572883 13.6686634,33.3031399 14.2788341,34.2881465 C14.4072631,34.4958254 14.6236206,34.6330323 14.866623,34.6613279 C14.8975313,34.665065 14.9273737,34.6666667 14.9582819,34.6666667 C15.1693103,34.6666667 15.3723453,34.5833816 15.523689,34.4322938 C17.1053367,32.8477411 17.7421524,30.4650394 17.3382141,27.7764251 C18.0235237,27.8554392 18.7088333,27.9066916 19.3914785,27.9066916 C19.3914785,27.9066916 19.3914785,27.9066916 19.3920114,27.9066916 C20.8137891,27.9066916 22.1945334,27.7278421 23.5107969,27.3893629 C23.985078,28.9466877 25.0471481,29.9557189 26.2856081,29.9557189 C27.9876913,29.9557189 29.3210076,28.0465679 29.3210076,25.6083428 C29.3210076,25.2442373 29.2815729,24.8892078 29.2218881,24.5411188 C29.6194317,24.2191898 30.002054,23.8764395 30.3654919,23.5118002 C34.3979476,19.4714044 35.762172,13.4433773 34.0147924,7.38758853 Z M15.0339537,32.4905761 C14.279367,31.3176441 12.9988079,29.3956799 12.251149,28.6450461 C11.4949636,27.8874719 9.59250995,26.6157723 8.41480055,25.8565965 C9.70068869,25.0547103 11.444871,24.8342183 13.3819631,25.2271532 C13.4794839,25.691094 13.5887284,26.1550348 13.7224864,26.6200433 C13.7986911,26.8843134 14.0049235,27.0909246 14.268709,27.1672692 C14.7312664,27.3012729 15.1959554,27.4128536 15.6617101,27.5110873 C16.0565891,29.4549405 15.8365014,31.2028601 15.0339537,32.4905761 Z M26.2850752,28.3540821 C25.7921426,28.3540821 25.2960125,27.7577393 25.0364901,26.9115412 C25.9786576,26.5629183 26.8765944,26.1246037 27.7212412,25.6019362 C27.7212412,25.6040717 27.7217741,25.6067411 27.7217741,25.6088766 C27.722307,27.1800823 26.9634572,28.3540821 26.2850752,28.3540821 Z M19.3914785,26.3055886 C17.9808917,26.3055886 16.5527192,26.1176633 15.1405337,25.7476852 C13.7432695,20.4051586 14.9865256,15.1555271 18.5057984,11.6308583 C21.0333439,9.09867052 24.529702,7.70417874 28.3505963,7.70417874 C29.7606502,7.70417874 31.1866911,7.89210412 32.596745,8.26208222 C33.9972066,13.6024732 32.7555492,18.8526387 29.2352106,22.3805107 C26.7087309,24.9110969 23.2129057,26.3055886 19.3914785,26.3055886 Z M28.3878993,12.3345108 C29.1233016,12.3339769 29.7185511,11.7371002 29.7185511,11.0003473 C29.7185511,10.2646621 29.1222358,9.66564995 28.3863006,9.66511607 C27.6508984,9.66458219 27.0540502,10.2625266 27.0540502,11.0003473 C27.0572476,11.7365663 27.6514313,12.3345108 28.3878993,12.3345108 Z M29.6162343,16.2595887 C28.3809716,15.9024237 27.3173029,15.2831241 26.4545375,14.4187741 C25.5896405,13.5517547 24.9709434,12.4861324 24.6160319,11.2502026 C24.4939977,10.825235 24.049559,10.5785829 23.6269691,10.7024428 C23.2027806,10.8247011 22.9576465,11.2683545 23.0802135,11.6933221 C23.5107969,13.1924542 24.2659164,14.48978 25.3242562,15.5511313 C26.3793986,16.6092794 27.6748789,17.365252 29.1733942,17.7987617 C29.2480002,17.8201168 29.3220734,17.8302605 29.3956136,17.8302605 C29.7425316,17.8302605 30.0622717,17.6022942 30.1629898,17.2515358 C30.285024,16.8265681 30.0404228,16.3823808 29.6162343,16.2595887 Z" id="Shape" transform="translate(20.500000, 20.000000) rotate(240.000000) translate(-20.500000, -20.000000) "></path>
                </g>
            </g>
        </g>
    </g>
</svg>