<?xml version="1.0" encoding="UTF-8"?>
<svg width="38px" height="38px" viewBox="0 0 38 38" version="1.1" xmlns="http://www.w3.org/2000/svg" xmlns:xlink="http://www.w3.org/1999/xlink">
    <!-- Generator: Sketch 49 (51002) - http://www.bohemiancoding.com/sketch -->
    <title>Icon</title>
    <desc>Created with Sketch.</desc>
    <defs></defs>
    <g id="点餐组件" stroke="none" stroke-width="1" fill="none" fill-rule="evenodd">
        <g id="icon" transform="translate(-60.000000, -49.000000)" fill="#FD593E">
            <g id="Icon" transform="translate(58.000000, 47.000000)">
                <path d="M8.878632,16.9841538 C9.644964,16.9841538 10.266144,17.5349481 10.266144,18.2141423 L10.266144,37.8071164 C10.266144,38.4866308 9.644964,39.0371048 8.878632,39.0371048 L6.391266,39.0371048 C4.948398,39.0364642 3.746442,38.0566293 3.626154,36.7828 L2.009322,19.647921 C1.944516,18.9624009 2.206764,18.2848083 2.7321,17.7784955 C3.257646,17.272463 3.998274,16.9841538 4.774518,16.9841538 L8.878632,16.9841538 Z M37.451064,17.3289558 C38.2137,17.3279949 38.93673,17.6519774 39.421074,18.2119402 C39.905376,18.7703016 40.100382,19.506589 39.952122,20.2172926 C39.485082,22.4605472 38.688636,25.6501653 37.81218,28.2218065 C36.906576,30.8808493 35.485716,34.1177916 34.325466,36.3465126 C33.466272,37.9957725 31.695678,39.038346 29.758302,39.0371048 L14.858718,39.0371048 C14.155008,39.0371048 13.58448,38.4947985 13.58448,37.8266546 L13.58448,18.2680726 C13.581708,17.5822723 13.888392,16.9279814 14.426622,16.4705943 C16.53225,14.6942157 20.867322,10.4134187 20.867322,5.28843346 C21.079212,4.93574415 20.494152,2.81268183 23.316888,2.81268183 C23.316888,2.81268183 29.969646,3.51962191 26.04504,17.3289558 L37.451064,17.3289558 Z" id="Combined-shape-137"></path>
            </g>
        </g>
    </g>
</svg>