<svg xmlns="http://www.w3.org/2000/svg" viewBox="0 0 100 100"><defs><style>.cls-1{fill:none;}.cls-2{fill:#fff;}</style></defs><title>icon-coupon1</title><g id="图层_2" data-name="图层 2"><g id="图层_1-2" data-name="图层 1"><rect id="Rectangle-8" class="cls-1" width="100" height="100"/><path class="cls-2" d="M82.11,52.3c.48-3.44,2.56-5,6.57-5a2,2,0,0,0,0-4A10.84,10.84,0,0,0,80.94,46l-.11-.23H81V32a4.27,4.27,0,0,0-4-4H61.48A9,9,0,0,0,47,17.36,9,9,0,0,0,32.52,28H17a4.27,4.27,0,0,0-4,4V77a4.27,4.27,0,0,0,4,4H66.92v-.06A17,17,0,1,0,82.11,52.3ZM72,43.94a6.42,6.42,0,0,1,3.92,1.71A7.46,7.46,0,0,1,78,50.83a7.48,7.48,0,0,1-4.5-2.51A6.74,6.74,0,0,1,72,43.94Zm5-11.79v9.33A10.79,10.79,0,0,0,69.92,40l-1.42.2-.27,1.4a11,11,0,0,0,2.19,9.24A10.66,10.66,0,0,0,71.53,52h-22V32H76.85A.73.73,0,0,1,77,32.15ZM54,18a5,5,0,0,1,0,10H49V23A5,5,0,0,1,54,18ZM35,23a5,5,0,0,1,10,0v5H40A5,5,0,0,1,35,23ZM17.15,32H45.5V52H17V32.15A.73.73,0,0,1,17.15,32ZM17,76.85V56H45.5V77H17.15A.73.73,0,0,1,17,76.85ZM49.5,77V56H68.07A17,17,0,0,0,64,77ZM79,82A13,13,0,1,1,92,69,13,13,0,0,1,79,82Z"/></g></g></svg>