<svg xmlns="http://www.w3.org/2000/svg" viewBox="0 0 100 100"><defs><style>.cls-1{fill:none;}.cls-2{fill:#fff;}</style></defs><title>icon-coupon3</title><g id="图层_2" data-name="图层 2"><g id="图层_1-2" data-name="图层 1"><rect id="Rectangle-8" class="cls-1" width="100" height="100"/><path class="cls-2" d="M88,68H84.65A6,6,0,0,0,74.5,62,6,6,0,0,0,72,60.35V55.66l.28,0a2,2,0,0,0,.39,0A19,19,0,1,0,50.72,31.81c0,.06,0,.13,0,.19H33.31L21.42,9.91l-3.52,1.9L28.76,32H18V88H56v3a6,6,0,0,0,6,6H88a6,6,0,0,0,6-6V74A6,6,0,0,0,88,68Zm2,6v5.5H76.5V72H88A2,2,0,0,1,90,74ZM68,66a2,2,0,0,1,4,0v2H70A2,2,0,0,1,68,66Zm2,6h2.5v7.5H60V74a2,2,0,0,1,2-2Zm7-6a2,2,0,1,1,2,2H77ZM69,22a15,15,0,0,1,3,29.7V32H54.86A15.06,15.06,0,0,1,69,22ZM68,36V60.35A6,6,0,0,0,64.35,68H62a6,6,0,0,0-4.46,2H53.76L35.46,36ZM30.92,36l18.3,34H22V36ZM22,84V74H56V84Zm38,7V83.5H72.5V93H62A2,2,0,0,1,60,91Zm28,2H76.5V83.5H90V91A2,2,0,0,1,88,93Z"/></g></g></svg>