<svg xmlns="http://www.w3.org/2000/svg" viewBox="0 0 100 100"><defs><style>.cls-1{fill:none;}.cls-2,.cls-3{fill:#fff;isolation:isolate;}.cls-2{opacity:0.6;}.cls-3{opacity:0.9;}</style></defs><title>icon-coupon-used</title><g id="图层_2" data-name="图层 2"><g id="图层_1-2" data-name="图层 1"><rect id="Rectangle-8" class="cls-1" width="100" height="100"/><path class="cls-2" d="M50.07,21a30.29,30.29,0,0,0-19.74,7.22A29,29,0,0,0,23,37.75l2.26,1.08A26.45,26.45,0,0,1,32,30.12,27.79,27.79,0,0,1,50.07,23.5,27.38,27.38,0,0,1,74.84,38.72l2.25-1.09A29.88,29.88,0,0,0,50.07,21Z"/><path class="cls-2" d="M50.07,76A27.5,27.5,0,0,1,26.66,63.27l-2.12,1.32a30.35,30.35,0,0,0,51.12-.07L73.53,63.2A27.5,27.5,0,0,1,50.07,76Z"/><polygon class="cls-2" points="68.55 78.69 66.52 79.45 64.46 78.76 64.55 80.93 63.26 82.68 65.35 83.25 66.61 85.03 67.81 83.21 69.88 82.56 68.53 80.86 68.55 78.69"/><polygon class="cls-2" points="51.74 82.83 50.48 81.06 49.29 82.87 47.21 83.53 48.57 85.22 48.55 87.4 50.58 86.63 52.64 87.33 52.54 85.15 53.84 83.41 51.74 82.83"/><polygon class="cls-2" points="33.37 19.26 34.63 21.03 35.83 19.21 37.9 18.56 36.55 16.86 36.57 14.69 34.53 15.46 32.48 14.76 32.57 16.93 31.28 18.68 33.37 19.26"/><polygon class="cls-2" points="48.54 18.4 50.57 17.63 52.63 18.32 52.53 16.15 53.83 14.41 51.73 13.83 50.48 12.06 49.28 13.87 47.21 14.52 48.56 16.22 48.54 18.4"/><polygon class="cls-2" points="36.55 78.69 34.52 79.45 32.46 78.76 32.55 80.93 31.26 82.68 33.35 83.25 34.61 85.03 35.81 83.21 37.88 82.56 36.53 80.86 36.55 78.69"/><polygon class="cls-2" points="65.37 19.26 66.63 21.03 67.83 19.21 69.9 18.56 68.55 16.86 68.57 14.69 66.53 15.46 64.47 14.76 64.57 16.93 63.28 18.68 65.37 19.26"/><path class="cls-2" d="M33.4,62.24l-1.8,1.48a24.06,24.06,0,0,0,37-.23L66.83,62a21.74,21.74,0,0,1-33.43.21Z"/><path class="cls-2" d="M50,27.31A23.62,23.62,0,0,0,29.65,38.69l2,1.19a21.63,21.63,0,0,1,36.68-.14l2-1.2A23.63,23.63,0,0,0,50,27.31Z"/><path class="cls-3" d="M71,58.58a1.76,1.76,0,0,0,2-2V43.51H59.69V52a10,10,0,0,1-1.62,5.69l1.27,1.13a10.45,10.45,0,0,0,1.93-5.43h4.09v5H67v-5h4.31V56c0,.68-.3,1-.85,1s-1.22,0-1.9-.09L69,58.58ZM65.36,51.9h-4V49.24h4Zm0-4.18h-4V45.11h4ZM67,45.11h4.31v2.61H67Zm0,6.79V49.24h4.31V51.9Z"/><path class="cls-3" d="M24.15,45.32H35.63v4.14h-9.1V47.08H24.86v9c0,1.53.73,2.3,2.21,2.3h9.6a2.59,2.59,0,0,0,1.69-.63c.37-.4.66-1.71.87-3.9l-1.62-.52c-.1,1.83-.28,2.87-.56,3.13a1.29,1.29,0,0,1-.85.31H27.52a.88.88,0,0,1-1-1V51H37.32V43.74H24.15Z"/><path class="cls-3" d="M40.53,49.85l.54,1.77c.52-.57,1-1.17,1.5-1.76V59h1.67V47.31a21.44,21.44,0,0,0,1.62-3.79l-1.57-.73A19.3,19.3,0,0,1,40.53,49.85Z"/><path class="cls-3" d="M45.81,59.07a7.87,7.87,0,0,0,4.38-1.74,14.45,14.45,0,0,0,6.23,1.74l.4-1.58a13.87,13.87,0,0,1-5.69-1.43,10.11,10.11,0,0,0,.8-3.38H56V47.51H52V46.14h4.68V44.56H52V42.92H50.35v1.64H46v1.58h4.37v1.37H46.47v5.17h3.79a8.72,8.72,0,0,1-.59,2.47A11.26,11.26,0,0,1,47.42,53l-1.27.87a14.51,14.51,0,0,0,2.57,2.49,6.59,6.59,0,0,1-3.64,1.18ZM52,49h2.47V51.2H52ZM48,51.2V49h2.33V51.2Z"/><path class="cls-2" d="M50,0a50,50,0,1,0,50,50A50,50,0,0,0,50,0Zm0,97.13A47.13,47.13,0,1,1,97.13,50,47.12,47.12,0,0,1,50,97.13Z"/></g></g></svg>