<svg xmlns="http://www.w3.org/2000/svg" viewBox="0 0 100 100"><defs><style>.cls-1{fill:none;}.cls-2{fill:#fff;}</style></defs><title>icon-coupon2</title><g id="图层_2" data-name="图层 2"><g id="图层_1-2" data-name="图层 1"><rect id="Rectangle-8" class="cls-1" width="100" height="100"/><path class="cls-2" d="M88,68H84.65A6,6,0,0,0,74.5,62a6,6,0,0,0-1.43-1.19c.41-2.5,1-5.95,1.66-10.43l0-.32A2.11,2.11,0,0,0,72.63,48H66.75A87.57,87.57,0,0,1,73,21.88a4.74,4.74,0,0,0,4.2-2.41l2.07-3.65a5,5,0,0,0-1.69-6.69L72.17,5.69a5,5,0,0,0-6.78,1.4l-2.45,3.56A4.84,4.84,0,0,0,62.78,16C59.14,21.61,44.52,42.24,37,48H9.12l-.36,0A2.11,2.11,0,0,0,7,50.46l6.31,36.05A4.22,4.22,0,0,0,17.51,90H56v1a6,6,0,0,0,6,6H88a6,6,0,0,0,6-6V74A6,6,0,0,0,88,68Zm2,6v5.5H76.5V72H88A2,2,0,0,1,90,74ZM68,66a2,2,0,0,1,4,0v2H70A2,2,0,0,1,68,66Zm4.5,6v7.5H60V74a2,2,0,0,1,2-2ZM77,66a2,2,0,1,1,2,2H77ZM55.59,52,27.17,67.17,22.13,52ZM68.68,9.36A1,1,0,0,1,70,9.08l5.44,3.42a1,1,0,0,1,.34,1.34l-2.07,3.65a.74.74,0,0,1-.41.33L66.18,13a.84.84,0,0,1,.06-.13Zm-2.41,8.56,3.21,2.14q-1.6,3.78-2.84,7.77-1.77.58-4.3,1.13a21.21,21.21,0,0,1-1.29-3.4C63.39,22.27,65.25,19.53,66.27,17.92ZM58.21,29.49a19.53,19.53,0,0,0,1.4,2.8l.73,1.15,1.34-.27c1.34-.26,2.55-.54,3.66-.82A96.47,96.47,0,0,0,62.73,48H42.94C47.71,43.25,53.49,35.91,58.21,29.49ZM17.51,86a.23.23,0,0,1-.23-.17L11.36,52h6.55l5.46,16.43a4,4,0,0,0,.27.62,4,4,0,0,0,5.41,1.65L64.08,52h6.35c-.52,3.35-.95,6-1.29,8.06A6,6,0,0,0,64.35,68H62a6,6,0,0,0-6,6V86ZM60,91V83.5H72.5V93H62A2,2,0,0,1,60,91Zm28,2H76.5V83.5H90V91A2,2,0,0,1,88,93Z"/></g></g></svg>