<?xml version="1.0" encoding="UTF-8"?>
<svg width="60px" height="60px" viewBox="0 0 60 60" version="1.1" xmlns="http://www.w3.org/2000/svg" xmlns:xlink="http://www.w3.org/1999/xlink">
    <!-- Generator: Sketch 49 (51002) - http://www.bohemiancoding.com/sketch -->
    <title>icon_close</title>
    <desc>Created with Sketch.</desc>
    <defs></defs>
    <g id="点餐" stroke="none" stroke-width="1" fill="none" fill-rule="evenodd">
        <g id="菜品大图" transform="translate(-345.000000, -1222.000000)">
            <g id="icon_close" transform="translate(345.000000, 1222.000000)">
                <circle id="Oval-3" stroke="#FFFFFF" stroke-width="2" cx="30" cy="30" r="29"></circle>
                <g id="Group-11" transform="translate(20.000000, 21.000000)" fill="#EFEFEF" stroke="#EFEFEF" stroke-width="1.16">
                    <path d="M1.09511997,0.537979439 L1.09511997,0.537979439 C1.45419928,0.178900125 2.03638188,0.178900125 2.39546119,0.537979439 L11.7475377,9.89005592 L20.4035703,18.5460885 C20.7626496,18.9051678 20.7626496,19.4873504 20.4035703,19.8464297 L20.4035703,19.8464297 C20.044491,20.205509 19.4623084,20.205509 19.103229,19.8464297 L1.09511997,1.83832066 C0.736040657,1.47924135 0.736040657,0.897058752 1.09511997,0.537979439 Z" id="Rectangle-9"></path>
                    <path d="M20.5705893,0.707939285 L20.5705893,0.707939285 C20.9233472,1.07323071 20.9131867,1.65532463 20.5478953,2.00808246 L11.0340269,11.1955183 L2.22824407,19.699164 C1.86295265,20.0519218 1.28085872,20.0417613 0.928100895,19.6764699 L0.928100895,19.6764699 C0.575343069,19.3111785 0.585503556,18.7290845 0.950794978,18.3763267 L19.2704462,0.685245202 C19.6357376,0.332487376 20.2178315,0.342647863 20.5705893,0.707939285 Z" id="Rectangle-9"></path>
                </g>
            </g>
        </g>
    </g>
</svg>