<?xml version="1.0" encoding="UTF-8"?>
<svg width="55px" height="34px" viewBox="0 0 55 34" version="1.1" xmlns="http://www.w3.org/2000/svg" xmlns:xlink="http://www.w3.org/1999/xlink">
    <!-- Generator: Sketch 49 (51002) - http://www.bohemiancoding.com/sketch -->
    <title>We pay</title>
    <desc>Created with Sketch.</desc>
    <defs>
        <linearGradient x1="100%" y1="45.7055069%" x2="1.11768425%" y2="44.1887335%" id="linearGradient-1">
            <stop stop-color="#FD6A41" offset="0%"></stop>
            <stop stop-color="#FD4B3B" offset="100%"></stop>
        </linearGradient>
        <path d="M4,0 L51,0 C53.209139,-4.05812251e-16 55,1.790861 55,4 L55,30 C55,32.209139 53.209139,34 51,34 L4,34 C1.790861,34 2.705415e-16,32.209139 0,30 L0,4 C-2.705415e-16,1.790861 1.790861,4.05812251e-16 4,0 Z" id="path-2"></path>
        <linearGradient x1="100%" y1="45.7055069%" x2="0%" y2="44.1715892%" id="linearGradient-3">
            <stop stop-color="#FD6A41" offset="0%"></stop>
            <stop stop-color="#FD4B3B" offset="98.8823158%"></stop>
        </linearGradient>
        <path d="M20.6729131,7.70444104 C19.0034072,6.61102603 17.0272572,6 14.9829642,6 C9.46337308,6 5,10.245023 5,15.4869832 C5,16.4839204 5.1362862,17.287902 5.30664395,17.7381317 C5.78364566,19.8284839 7.65758092,22.1117917 10.1448041,23.719755 C10.2129472,23.7519142 10.2810903,23.7840735 10.3492334,23.8162328 C12.8705281,25.1669219 14.6422487,26.8713629 14.6422487,26.8713629 C14.7444634,26.9678407 14.8807496,27 15.0170358,27 C15.1192504,27 15.2555366,26.9678407 15.3577513,26.9035222 C15.3918228,26.8713629 17.7086882,25.0704441 19.5826235,23.9127106 C19.6848382,23.848392 20.3321976,23.4624809 20.8091993,23.1408882 C23.4667802,21.3078101 25,18.4456355 25,15.4869832 C24.9659284,12.3675345 23.3986371,9.53751914 20.6729131,7.70444104 Z M17.0017516,8 C18.8149341,8 20.1509634,8.82758621 20.4054451,9.03448276 C22.695781,10.8275862 24,13.5517241 24,16.5172414 C24,17.2413793 23.9045693,17.9655172 23.7455182,18.6896552 C23.7455182,18 23.6500876,17.3103448 23.427416,16.5517241 C23.0456934,15.3103448 22.3776788,14.2758621 21.3597517,13.4827586 C20.3736349,12.7241379 19.3557079,12.3448276 18.3059706,12.3448276 C16.6200289,12.3448276 15.4430508,13.4137931 14.9658975,14.3103448 C14.4887442,15.2068966 14.3933135,16.1724138 14.3933135,16.2068966 C14.3615033,16.4827586 14.5523646,16.7241379 14.8068464,16.7586207 C15.0613282,16.7931034 15.2839997,16.6206897 15.3476201,16.3448276 C15.3794304,16.2068966 15.5702917,15.4482759 16.3655472,15.4482759 C16.8427005,15.4482759 17.2244231,15.862069 17.4152844,16.137931 C17.637956,16.7931034 17.5743355,17.3793103 17.2562333,17.8965517 C16.77908,18.6551724 15.8565837,19 15.188569,19 C14.0115909,19 12.9618536,18.4827586 12.1984083,17.5517241 C11.3395324,16.5517241 10.8941893,15.137931 11.0214302,13.8275862 C11.1168609,12.7586207 11.4031528,11.9655172 11.9439266,11.0689655 C12.5483208,10.0344828 14.743226,8.03448276 17.0017516,8 Z M7.21604938,17.460165 C7.15432099,17.2646479 7,16.6455104 7,15.5701663 C7,11.1058592 10.2407407,7.39103421 14.345679,7 C12.6481481,7.68430986 11.2592593,9.05292958 10.7345679,9.86758417 C10.117284,10.8125835 9.80864198,11.7575828 9.68518519,12.9306854 C9.5308642,14.4622361 10.0555556,16.0589591 11.0432099,17.1994755 C11.9691358,18.2748196 13.2345679,18.8939571 14.5925926,18.8939571 C14.5925926,18.8939571 14.6234568,18.8939571 14.6234568,18.8939571 C15.3641975,18.8939571 16.3209877,18.5680952 17,17.8837854 C16.9382716,18.0793025 16.8765432,18.2748196 16.7839506,18.4377505 C16.4444444,19.1872327 15.6111111,20.5232663 13.7592593,20.8817143 C11.1666667,21.4356794 8.35802469,20.0018873 7.21604938,17.460165 Z M16.7536549,23.3125 C15.4167053,24.21875 13.8670592,25.46875 13.1985844,26 C12.6212653,25.4375 11.2539305,24.21875 9.46120264,23.15625 C9.43081742,23.125 9.40043221,23.125 9.37004699,23.09375 C8.45849045,22.46875 7.66847479,21.6875 7,20.90625 C8.45849045,21.875 10.2816035,22.25 12.0439462,21.90625 C13.6543627,21.59375 14.9609271,20.53125 15.6597871,19.03125 C16.2371062,17.75 16.2978766,16.375 15.7813279,15.375 C15.7509427,15.28125 15.6901723,15.15625 15.6294019,15.0625 C15.2951645,14.53125 14.6874601,13.96875 13.8670592,13.9375 C13.7455184,13.9375 13.6239775,13.9375 13.5328218,13.96875 C13.9582149,13.46875 14.6874601,13 15.6901723,13 C16.5105732,13 17.3005888,13.28125 18.0906045,13.875 C18.8806202,14.46875 19.4275541,15.25 19.7314063,16.1875 C20.7037332,19.34375 18.7894645,21.65625 17.9082932,22.5 C17.6348262,22.71875 16.9967367,23.15625 16.7536549,23.3125 Z" id="path-4"></path>
    </defs>
    <g id="点餐" stroke="none" stroke-width="1" fill="none" fill-rule="evenodd">
        <g id="❌未完成-支付" transform="translate(-80.000000, -474.000000)">
            <g id="We-pay" transform="translate(80.000000, 474.000000)">
                <g id="Group">
                    <g id="Rectangle-16">
                        <use fill="#FFF2EF" fill-rule="evenodd" xlink:href="#path-2"></use>
                        <path stroke="url(#linearGradient-1)" stroke-width="1" d="M4,0.5 C2.06700338,0.5 0.5,2.06700338 0.5,4 L0.5,30 C0.5,31.9329966 2.06700338,33.5 4,33.5 L51,33.5 C52.9329966,33.5 54.5,31.9329966 54.5,30 L54.5,4 C54.5,2.06700338 52.9329966,0.5 51,0.5 L4,0.5 Z"></path>
                    </g>
                    <text id="Pay" font-family="PingFangSC-Regular, PingFang SC" font-size="14" font-weight="normal" fill="#FD503C">
                        <tspan x="26.121" y="20">Pay</tspan>
                    </text>
                    <g id="Shape" fill-rule="nonzero">
                        <use fill="#FFFFFF" fill-rule="evenodd" xlink:href="#path-4"></use>
                        <path stroke="url(#linearGradient-3)" stroke-width="1" d="M20.3964179,8.12104655 C18.7883474,7.06857061 16.9048952,6.5 14.9829642,6.5 C9.73524055,6.5 5.5,10.5258197 5.5,15.4869832 C5.5,16.3601098 5.61191792,17.1320686 5.79411335,17.6268951 C6.23498827,19.5589298 8.00940188,21.743852 10.3582019,23.2675809 C10.3667197,23.2716008 10.3667197,23.2716008 10.3752376,23.2756207 C10.4178271,23.2957203 10.4178271,23.2957203 10.4604165,23.3158198 C10.5115238,23.3399393 10.5115238,23.3399393 10.5853435,23.3754925 C11.0109226,23.6034805 11.4311296,23.8494982 11.844775,24.1109148 C12.6723911,24.6339535 13.4367085,25.1938179 14.1204367,25.7540565 C14.360268,25.9505715 14.5731935,26.1333799 14.7570017,26.2979318 C14.8680891,26.3973813 14.9458969,26.4696961 14.9848405,26.5071654 C14.9755417,26.4982258 14.9819383,26.5 15.0170358,26.5 C15.0338433,26.5 15.0675843,26.4914919 15.0343214,26.5229148 C15.3727318,26.2125362 17.8865086,24.3728593 19.316332,23.4895217 C19.2276395,23.5453314 19.9019767,23.1324154 20.1801604,22.95486 C20.2344416,22.9201452 20.2344416,22.9201452 20.2883151,22.885391 C20.3755118,22.8290068 20.4562066,22.7758529 20.5253052,22.7293009 C23.0300411,21.0016483 24.5,18.3010631 24.5000298,15.492444 C24.4677456,12.5366315 22.9822669,9.86115041 20.3964178,8.12104647 Z M14.9131858,16.038165 C15.1065458,15.4258724 15.533466,14.9482759 16.3655472,14.9482759 C16.9703571,14.9482759 17.4628807,15.3279402 17.8264643,15.8534471 L17.88869,15.9770361 C18.1551936,16.7611769 18.0846554,17.5039753 17.6794747,18.1627599 C17.1510466,19.0029017 16.1247202,19.5 15.188569,19.5 C13.866481,19.5 12.6734049,18.9195369 11.819105,17.8774986 C10.8722295,16.7750396 10.3832453,15.2264147 10.5234108,13.7831261 C10.6228783,12.6689422 10.9180135,11.8017608 11.512209,10.8167355 C12.4284815,9.24844098 14.8839897,7.53227533 16.9941186,7.50005827 L17.0017516,7.5 C18.5508968,7.5 20.0210556,8.07757325 20.7136703,8.64078589 C23.1233281,10.5273065 24.5,13.3956869 24.5,16.5172414 C24.5,17.2467692 24.4091214,17.999056 24.2338771,18.7969193 L23.2455182,23.2967823 L23.2455182,18.6896552 C23.2455182,18.0295198 23.151606,17.3873826 22.9495005,16.6986826 C22.5878953,15.5227261 21.9646922,14.5879373 21.0548789,13.8790572 C20.1525255,13.1848758 19.2399634,12.8448276 18.3059706,12.8448276 C17.0224986,12.8448276 15.9170208,13.5874699 15.4072798,14.5452526 C15.1485138,15.0314635 14.9734618,15.6597548 14.9131858,16.038165 Z M6.75996786,17.6650787 L6.73924835,17.6107 C6.60271558,17.1782492 6.5,16.4823853 6.5,15.5701663 C6.5,10.8766091 9.90925265,6.92034811 14.2982639,6.50225327 L17.7282462,6.175515 L14.5326213,7.46373764 C13.1490326,8.0214909 11.7607466,9.19770335 11.1531744,10.1410226 C10.5927622,10.998957 10.3004452,11.8617073 10.1826661,12.9808123 C10.0436659,14.3603132 10.5134651,15.8239507 11.4221056,16.8732271 C12.263232,17.8500874 13.3950656,18.3939571 14.5925926,18.3939571 C14.5964506,18.3939571 14.5964506,18.3939571 14.6080247,18.3939571 C14.6195988,18.3939571 14.6195988,18.3939571 14.6234568,18.3939571 C15.3051445,18.3939571 16.109169,18.071696 16.6450755,17.5316085 L18.0977224,16.0676283 L17.4778895,18.0308283 L17.476801,18.0343204 C17.3732161,18.3624129 17.3195014,18.5073426 17.2394008,18.6440638 C16.6274871,19.9949034 15.5579154,21.0428434 13.863737,21.3706769 C11.0220107,21.9778749 7.9905327,20.403977 6.75996786,17.6650787 Z M9.64773601,22.6819027 C9.64639857,22.6812392 9.64524009,22.6807186 9.64427934,22.6803461 C9.64561747,22.6810008 9.64695641,22.681661 9.64829616,22.6823266 Z M17.0292573,23.7297286 C16.7856623,23.8949406 16.5259061,24.077848 16.2512615,24.2770622 C16.0811007,24.4004888 15.905901,24.5296853 15.7257913,24.6644237 C15.3166608,24.9704904 14.8959264,25.2946785 14.4460383,25.6484193 C14.2757481,25.7823162 14.1088855,25.9144362 13.919323,26.0652313 C13.6925036,26.2458744 13.6925036,26.2458744 13.50967,26.3914407 L13.1649935,26.6653618 L12.8496572,26.3581198 C11.9331192,25.4651083 10.6405278,24.4364219 9.2062761,23.5863807 L9.10272395,23.5048085 C9.13484437,23.5378431 9.16933194,23.561069 9.18353983,23.5681103 C9.12753646,23.540157 9.07236536,23.5045074 9.08730353,23.5061286 C8.21311325,22.9067484 7.40026191,22.1431078 6.62009118,21.2313181 L4.28574907,18.5031602 L7.27664253,20.489754 C8.6364492,21.3929568 10.3276696,21.7315921 11.9486983,21.415406 C13.3854157,21.1366122 14.5680194,20.1906311 15.2039271,18.8258438 C15.7285509,17.6615411 15.7725438,16.4474679 15.3056865,15.5291597 C15.2892206,15.478356 15.2475543,15.3926519 15.2061945,15.3287621 C14.8785268,14.8079543 14.3865341,14.45765 13.8670592,14.4375 C13.7462361,14.4375 13.6975689,14.4408368 13.6949684,14.4417283 L11.9711687,15.0326817 L13.1519999,13.644752 C13.7471167,12.9452616 14.6412316,12.5 15.6901723,12.5 C16.6306912,12.5 17.5241438,12.8237961 18.3910053,13.4753009 C19.2580403,14.1269362 19.8693474,14.9914059 20.2092458,16.0402948 C21.058444,18.796859 20.0371203,21.1538343 18.2206202,22.8904508 C17.9689362,23.0917763 17.3550495,23.5199544 17.0292573,23.7297286 Z"></path>
                    </g>
                </g>
            </g>
        </g>
    </g>
</svg>