<?xml version="1.0" encoding="UTF-8"?>
<svg width="12px" height="26px" viewBox="0 0 12 26" version="1.1" xmlns="http://www.w3.org/2000/svg" xmlns:xlink="http://www.w3.org/1999/xlink">
    <!-- Generator: Sketch 49 (51002) - http://www.bohemiancoding.com/sketch -->
    <title>icon</title>
    <desc>Created with Sketch.</desc>
    <defs></defs>
    <g id="点餐组件" stroke="none" stroke-width="1" fill="none" fill-rule="evenodd">
        <g id="icon" transform="translate(-58.000000, -233.000000)" fill="#FF223C">
            <g id="Icon" transform="translate(55.000000, 232.000000)">
                <path d="M4.552906,26.677071 C1.93426,27.835157 3.314881,25.679732 3.903183,24.928197 C10.486212,14.631225 4.243098,7.693816 8.648988,6.370024 C9.227549,6.198286 9.660811,6.070106 10.261268,5.89193 C10.233728,6.176797 10.211917,6.775067 10.132255,7.045492 C9.461248,7.098533 8.973892,7.353356 8.949395,7.715856 C8.91667,8.195487 9.707034,8.679149 10.714556,8.795787 C11.722078,8.913005 12.565108,8.618568 12.597374,8.13943 C12.610515,7.944695 12.482845,7.750917 12.2655,7.578686 C12.536038,7.231701 12.785938,6.864677 13.013483,6.480137 C14.164587,6.899738 15.096221,7.641761 15.013873,9.098257 C14.654357,15.45584 11.543714,22.718687 4.552906,26.677071 Z M11.644031,7.457524 L10.934315,7.442009 C10.934315,7.442009 10.835256,7.362897 10.9378,7.006922 C11.557399,4.025838 11.123066,1.01326 11.123066,1.01326 L13.080446,1.752818 C13.080446,1.752818 13.001685,5.156432 11.644031,7.457524 Z" id="Combined-shape-75"></path>
            </g>
        </g>
    </g>
</svg>