<?xml version="1.0" encoding="UTF-8"?>
<svg width="31px" height="31px" viewBox="0 0 31 31" version="1.1" xmlns="http://www.w3.org/2000/svg" xmlns:xlink="http://www.w3.org/1999/xlink">
    <!-- Generator: Sketch 49 (51002) - http://www.bohemiancoding.com/sketch -->
    <title>Shape</title>
    <desc>Created with Sketch.</desc>
    <defs></defs>
    <g id="Symbols" stroke="none" stroke-width="1" fill="none" fill-rule="evenodd">
        <g id="Search" fill="#FD543D" fill-rule="nonzero">
            <path d="M30.493188,28.0192308 L23.2570391,20.7234432 C24.8337875,18.5659341 25.791099,15.8974359 25.791099,13.0018315 C25.791099,5.81959707 20.0190736,0 12.8955495,0 C5.77202543,0 0,5.81959707 0,12.9734432 C0,20.1272894 5.77202543,25.9752747 12.8955495,25.9752747 C15.880109,25.9752747 18.6394187,24.9532967 20.8074478,23.2216117 L28.0154405,30.489011 C28.6911898,31.1703297 29.8174387,31.1703297 30.493188,30.489011 C31.1689373,29.8076923 31.1689373,28.7005495 30.493188,28.0192308 Z M2.11171662,12.9734432 C2.11171662,6.98351648 6.92643052,2.1007326 12.8955495,2.1007326 C18.8365123,2.1007326 23.6793824,6.95512821 23.6793824,12.9734432 C23.6793824,18.96337 18.8646685,23.8461538 12.8955495,23.8461538 C6.92643052,23.8461538 2.11171662,18.9917582 2.11171662,12.9734432 Z" id="Shape"></path>
        </g>
    </g>
</svg>