<?xml version="1.0" encoding="UTF-8"?>
<svg width="160px" height="160px" viewBox="0 0 160 160" version="1.1" xmlns="http://www.w3.org/2000/svg" xmlns:xlink="http://www.w3.org/1999/xlink">
    <!-- Generator: Sketch 49 (51002) - http://www.bohemiancoding.com/sketch -->
    <title>mark-complete</title>
    <desc>Created with Sketch.</desc>
    <defs></defs>
    <g id="Symbols" stroke="none" stroke-width="1" fill="none" fill-rule="evenodd">
        <g id="Solad-out" transform="translate(-30.000000, -30.000000)">
            <g id="mark-complete" transform="translate(30.000000, 30.000000)">
                <polygon id="Star-Copy" fill="#FFFFFF" fill-rule="evenodd" transform="translate(115.086150, 36.882600) rotate(-315.000000) translate(-115.086150, -36.882600) " points="115.08615 40.2011491 111.810547 41.9232359 112.436131 38.2757975 109.786112 35.6926673 113.448348 35.1605132 115.08615 31.8419641 116.723952 35.1605132 120.386189 35.6926673 117.736169 38.2757975 118.361754 41.9232359"></polygon>
                <polygon id="Star-Copy-2" fill="#FFFFFF" fill-rule="evenodd" transform="translate(96.635970, 26.504373) rotate(-315.000000) translate(-96.635970, -26.504373) " points="96.6359696 29.8229224 93.3603658 31.5450092 93.9859505 27.8975708 91.3359314 25.3144406 94.9981677 24.7822865 96.6359696 21.4637374 98.2737715 24.7822865 101.936008 25.3144406 99.2859887 27.8975708 99.9115734 31.5450092"></polygon>
                <polygon id="Star-Copy-3" fill="#FFFFFF" fill-rule="evenodd" transform="translate(128.923786, 51.873372) rotate(-315.000000) translate(-128.923786, -51.873372) " points="128.923786 55.1919209 125.648182 56.9140077 126.273767 53.2665693 123.623748 50.6834391 127.285984 50.151285 128.923786 46.832736 130.561588 50.151285 134.223824 50.6834391 131.573805 53.2665693 132.19939 56.9140077"></polygon>
                <polygon id="Star-Copy-4" fill="#FFFFFF" fill-rule="evenodd" transform="translate(136.995740, 72.629825) rotate(-315.000000) translate(-136.995740, -72.629825) " points="136.99574 75.9483743 133.720136 77.6704611 134.345721 74.0230227 131.695702 71.4398925 135.357938 70.9077384 136.99574 67.5891893 138.633542 70.9077384 142.295778 71.4398925 139.645759 74.0230227 140.271344 77.6704611"></polygon>
                <polygon id="Star-Copy-5" fill="#FFFFFF" fill-rule="evenodd" transform="translate(35.519746, 116.449005) rotate(-315.000000) translate(-35.519746, -116.449005) " points="35.5197458 119.767554 32.2441421 121.48964 32.8697267 117.842202 30.2197076 115.259072 33.8819439 114.726918 35.5197458 111.408369 37.1575477 114.726918 40.819784 115.259072 38.1697649 117.842202 38.7953496 121.48964"></polygon>
                <polygon id="Star-Copy-6" fill="#FFFFFF" fill-rule="evenodd" transform="translate(25.718087, 97.422256) rotate(-315.000000) translate(-25.718087, -97.422256) " points="25.7180873 100.740805 22.4424835 102.462891 23.0680682 98.8154531 20.4180491 96.2323229 24.0802854 95.7001688 25.7180873 92.3816197 27.3558892 95.7001688 31.0181255 96.2323229 28.3681064 98.8154531 28.9936911 102.462891"></polygon>
                <polygon id="Star-Copy-7" fill="#FFFFFF" fill-rule="evenodd" transform="translate(49.933950, 130.863208) rotate(-315.000000) translate(-49.933950, -130.863208) " points="49.9339495 134.181757 46.6583458 135.903844 47.2839304 132.256406 44.6339113 129.673276 48.2961477 129.141121 49.9339495 125.822572 51.5717514 129.141121 55.2339878 129.673276 52.5839687 132.256406 53.2095533 135.903844"></polygon>
                <polygon id="Star-Copy-8" fill="#FFFFFF" fill-rule="evenodd" transform="translate(70.690403, 138.935162) rotate(-315.000000) translate(-70.690403, -138.935162) " points="70.6904029 142.253711 67.4147991 143.975798 68.0403838 140.32836 65.3903647 137.74523 69.052601 137.213075 70.6904029 133.894526 72.3282048 137.213075 75.9904411 137.74523 73.340422 140.32836 73.9660067 143.975798"></polygon>
                <path d="M79.7320681,159.253026 C35.8138557,159.253026 0.211110046,123.650281 0.211110046,79.7320681 C0.211110046,35.8138557 35.8138557,0.211110046 79.7320681,0.211110046 C123.650281,0.211110046 159.253026,35.8138557 159.253026,79.7320681 C159.253026,123.650281 123.650281,159.253026 79.7320681,159.253026 Z M79.7320681,153.504523 C120.47547,153.504523 153.504523,120.47547 153.504523,79.7320681 C153.504523,38.9886662 120.47547,5.95961304 79.7320681,5.95961304 C38.9886662,5.95961304 5.95961304,38.9886662 5.95961304,79.7320681 C5.95961304,120.47547 38.9886662,153.504523 79.7320681,153.504523 Z" id="Oval-3" fill="#FFFFFF" fill-rule="nonzero"></path>
                <path d="M40.5818445,102.357191 C48.5669469,115.164983 63.1178338,123.733843 79.7442096,123.733843 C96.4156866,123.733843 111.000399,115.118432 118.971411,102.25287 M121.17245,61.1617129 C113.91488,46.1084541 98.0935072,35.6716692 79.7442096,35.6716692 C68.1284894,35.6716692 57.525788,39.8540169 49.4672655,46.7422366 C44.7470845,50.776927 40.8997827,55.7399716 38.2330618,61.3346578" id="Oval-3" stroke="#FFFFFF" stroke-width="4" transform="translate(79.702756, 79.702756) rotate(-315.000000) translate(-79.702756, -79.702756) "></path>
                <path d="M49.6058647,102.331309 C56.6223066,110.879332 67.5189,116.369692 79.7548287,116.369692 C92.1710028,116.369692 103.208092,110.716385 110.211333,101.951567 M112.940371,61.3129212 C106.311424,50.3553649 93.9321561,42.9845471 79.7548287,42.9845471 C65.4659404,42.9845471 53.0035212,50.4718226 46.4138682,61.5722593" id="Oval-3" stroke="#FFFFFF" stroke-width="4" transform="translate(79.677119, 79.677119) rotate(-315.000000) translate(-79.677119, -79.677119) "></path>
                <text id="已售罄" transform="translate(79.358131, 80.691732) rotate(44.000000) translate(-79.358131, -80.691732) " font-family="PingFangSC-Medium, PingFang SC" font-size="34" font-weight="400" fill="#FFFFFF">
                    <tspan x="28.3581307" y="92.6917321">已售罄</tspan>
                </text>
            </g>
        </g>
    </g>
</svg>