<?xml version="1.0" encoding="UTF-8"?>
<svg width="28px" height="28px" viewBox="0 0 28 28" version="1.1" xmlns="http://www.w3.org/2000/svg" xmlns:xlink="http://www.w3.org/1999/xlink">
    <!-- Generator: Sketch 49 (51002) - http://www.bohemiancoding.com/sketch -->
    <title>Shape</title>
    <desc>Created with Sketch.</desc>
    <defs></defs>
    <g id="Symbols" stroke="none" stroke-width="1" fill="none" fill-rule="evenodd">
        <g id="Timer" transform="translate(0.000000, -5.000000)" fill="#FFFFFF" fill-rule="nonzero">
            <g id="份数倒计时">
                <path d="M15.4139845,11.2844444 C20.4483907,11.2844444 24.5194229,15.36 24.5194229,20.4 C24.5194229,25.44 20.4483907,29.5155556 15.4139845,29.5155556 C10.3795782,29.5155556 6.30854606,25.44 6.30854606,20.4 C6.30854606,15.36 10.3795782,11.2844444 15.4139845,11.2844444 Z M15.4139845,22.8577778 C16.7813541,22.8577778 17.8690344,21.7688889 17.8690344,20.4 C17.8690344,19.9644444 17.7758047,19.5911111 17.5582686,19.2177778 L20.0754717,16.6977778 C20.3551609,16.4177778 20.3551609,15.9822222 20.0754717,15.7022222 C19.7957825,15.4222222 19.3607103,15.4222222 19.0810211,15.7022222 L16.5327414,18.2533333 C16.190899,18.0666667 15.7869034,17.9733333 15.3829079,17.9733333 C14.0155383,17.9733333 12.9278579,19.0622222 12.9278579,20.4311111 C12.9589345,21.7688889 14.0776915,22.8577778 15.4139845,22.8577778 Z M15.4139845,19.3733333 C16.0044395,19.3733333 16.4705882,19.84 16.4705882,20.4311111 C16.4705882,21.0222222 16.0044395,21.4888889 15.4139845,21.4888889 C14.8235294,21.4888889 14.3573807,21.0222222 14.3573807,20.4311111 C14.3573807,19.84 14.854606,19.3733333 15.4139845,19.3733333 Z M25.4206437,12.7466667 C27.036626,14.8622222 28,17.5066667 28,20.4 C28,27.3688889 22.3751387,33 15.4139845,33 C10.1931188,33 5.71809101,29.8266667 3.82241953,25.2844444 L6.15316315,25.2844444 C7.9245283,28.6133333 11.4051054,30.8844444 15.445061,30.8844444 C21.2253052,30.8844444 25.9489456,26.1866667 25.9489456,20.3688889 C25.9489456,14.5511111 21.2253052,9.88444444 15.4139845,9.88444444 C11.6847947,9.88444444 8.39067703,11.8444444 6.52608213,14.8 L4.13318535,14.8 C6.05993341,10.9422222 9.88235294,8.20444444 14.3573807,7.83111111 L14.3573807,7.08444444 L12.6170921,7.08444444 C12.0266371,7.08444444 11.5604883,6.61777778 11.5604883,6.02666667 C11.5604883,5.43555556 12.0266371,5 12.6170921,5 L18.2108768,5 C18.8013319,5 19.2674806,5.46666667 19.2674806,6.05777778 C19.2674806,6.64888889 18.8013319,7.11555556 18.2108768,7.11555556 L16.4705882,7.11555556 L16.4705882,7.86222222 C18.3973363,8.01777778 20.199778,8.60888889 21.8157603,9.54222222 L22.2508324,9.01333333 C22.7480577,8.42222222 23.618202,8.36 24.1775805,8.82666667 L25.7624861,10.1644444 C26.3529412,10.6622222 26.4150943,11.5333333 25.917869,12.1244444 L25.4206437,12.7466667 Z M3.16981132,17.2577778 L0.714761376,17.2577778 C0.310765816,17.2577778 0,16.9466667 0,16.5422222 C0,16.1688889 0.310765816,15.8577778 0.714761376,15.8577778 L3.16981132,15.8577778 C3.57380688,15.8577778 3.8845727,16.1688889 3.8845727,16.5733333 C3.8845727,16.9466667 3.57380688,17.2577778 3.16981132,17.2577778 Z M1.77136515,20.0577778 C1.77136515,19.6844444 2.08213097,19.3733333 2.48612653,19.3733333 L4.94117647,19.3733333 C5.34517203,19.3733333 5.65593785,19.6844444 5.65593785,20.0577778 C5.65593785,20.4311111 5.34517203,20.7422222 4.94117647,20.7422222 L2.48612653,20.7422222 C2.08213097,20.7422222 1.77136515,20.4311111 1.77136515,20.0577778 Z M0.745837958,22.4844444 L3.2008879,22.4844444 C3.60488346,22.4844444 3.91564928,22.7955556 3.91564928,23.2 C3.91564928,23.5733333 3.60488346,23.9155556 3.2008879,23.9155556 L0.745837958,23.9155556 C0.341842397,23.9155556 0.0310765816,23.6044444 0.0310765816,23.2 C0.0310765816,22.8266667 0.341842397,22.4844444 0.745837958,22.4844444 Z" id="Shape"></path>
            </g>
        </g>
    </g>
</svg>